<?xml version="1.0" encoding="utf-8"?>
<!-- Generator: Adobe Illustrator 22.0.1, SVG Export Plug-In . SVG Version: 6.00 Build 0)  -->
<svg version="1.1" id="Layer_1" xmlns="http://www.w3.org/2000/svg" xmlns:xlink="http://www.w3.org/1999/xlink" x="0px" y="0px"
	 viewBox="0 0 112.1 112.1" style="enable-background:new 0 0 112.1 112.1;" xml:space="preserve">
<style type="text/css">
	.st0{fill:#39B54A;}
</style>
<path class="st0" d="M56,112.1c-30.9,0-56-25.1-56-56S25.1,0,56,0s56,25.1,56,56S86.9,112.1,56,112.1z M51.1,107.3l1.1,0.1
	c1.3,0.1,2.5,0.2,3.8,0.2c1.9,0,3.9-0.1,5.8-0.3l1.1-0.1l-0.6-5.7l-1.1,0.1c-1.7,0.2-3.4,0.3-5.2,0.3c-1.1,0-2.2,0-3.4-0.1l-1.1-0.1
	L51.1,107.3z M30.7,100.9l1,0.5c2.8,1.5,5.8,2.8,8.8,3.7l1.1,0.3l1.7-5.4l-1.1-0.3c-2.7-0.8-5.3-1.9-7.8-3.3l-1-0.5L30.7,100.9z
	 M79.2,95.6c-2.4,1.4-5,2.6-7.7,3.6l-1.1,0.4l1.9,5.4l1.1-0.4c3-1.1,5.9-2.4,8.7-4.1l1-0.6L80.2,95L79.2,95.6z M14.7,86.8l0.7,0.9
	c2,2.6,4.2,4.9,6.5,7l0.9,0.8l3.8-4.3l-0.9-0.8c-2-1.8-4-3.9-5.8-6.2l-0.7-0.9L14.7,86.8z M93.3,82.7c-1.8,2.4-3.6,4.6-5.6,6.4
	l-0.8,0.8l3.9,4.2l0.8-0.8c2.3-2.2,4.4-4.7,6.3-7.2l0.6-0.9L94,81.8L93.3,82.7z M35.6,73.2l-0.2,8h41.4V58.9H67v12.8H49.1l25.5-33.5
	l0.2-6.2v-1.1h-39v21h9.7V40.3h15.2L35.6,73.2z M5.8,67.3L6,68.4c0.8,3.1,1.8,6.1,3.1,9l0.5,1l5.2-2.4l-0.5-1
	c-1.2-2.6-2.1-5.3-2.8-8l-0.2-1L5.8,67.3z M100.9,65.3c-0.6,2.7-1.4,5.5-2.5,8.2l-0.4,1l5.3,2.2l0.4-1.1c1.2-3,2.2-6.1,2.8-9.2
	l0.2-1.1l-5.6-1.2L100.9,65.3z M5.4,46.5c-0.6,3.2-0.9,6.4-0.9,9.5v1.1l1.1,0.5h4.5v-1.1c0-3.4,0.3-6.2,0.8-9l0.2-1.1l-5.6-1
	L5.4,46.5z M100.6,45.1l0.2,1.1c0.6,2.7,0.9,5.6,1,8.5v1.1l5.7-0.2v-1.1c-0.1-3.2-0.5-6.4-1.1-9.5l-0.2-1.1L100.6,45.1z M13.7,26.7
	c-1.8,2.7-3.4,5.5-4.7,8.3l-0.5,1l5.2,2.3l0.5-1c1.2-2.6,2.6-5.1,4.2-7.4L19,29l-4.7-3.3L13.7,26.7z M92.3,28l0.7,0.9
	c1.7,2.3,3.2,4.7,4.4,7.3l0.5,1l5.1-2.4l-0.5-1c-1.4-2.8-3-5.6-4.9-8.2l-0.7-0.9L92.3,28z M29.2,12.1c-2.7,1.7-5.3,3.6-7.7,5.7
	l-0.8,0.8l3.8,4.2l0.8-0.8c2.1-1.9,4.4-3.6,6.8-5.1l1-0.6l-3-4.9L29.2,12.1z M77.8,15.7l1,0.6c2.5,1.4,4.8,3.1,7,4.9l0.9,0.7
	l3.6-4.4l-0.9-0.7c-2.4-2.1-5.1-3.9-7.8-5.5l-1-0.6L77.8,15.7z M49.3,4.9C46.2,5.3,43.1,6,40,7l-1.1,0.4l1.8,5.4l1.1-0.4
	c2.7-0.9,5.5-1.5,8.3-1.9l1.1-0.2l-0.7-5.6L49.3,4.9z M59.6,10.3l1.1,0.1c2.8,0.3,5.6,0.8,8.4,1.6l1.1,0.3l1.6-5.4l-1.1-0.3
	c-3-0.9-6.2-1.5-9.4-1.9l-1.1-0.1L59.6,10.3z"/>
</svg>
