<?xml version="1.0" encoding="utf-8"?>
<!-- Generator: Adobe Illustrator 22.0.1, SVG Export Plug-In . SVG Version: 6.00 Build 0)  -->
<svg version="1.1" id="Layer_1" xmlns="http://www.w3.org/2000/svg" xmlns:xlink="http://www.w3.org/1999/xlink" x="0px" y="0px"
	 viewBox="0 0 286.9 51.7" style="enable-background:new 0 0 286.9 51.7;" xml:space="preserve">
<g>
	<g>
		<path style="fill:#FFFFFF;" d="M1.6,0h38c0.8,0,1.2,0.4,1.2,1.2v5.7c0,0.3,0,0.5-0.1,0.8c-0.1,0.3-0.2,0.4-0.3,0.5L13.8,41.5h25.6
			c0.8,0,1.2,0.4,1.2,1.2v6.9c0,0.8-0.4,1.2-1.2,1.2H1.2c-0.8,0-1.2-0.4-1.2-1.2v-5.9c0-0.5,0.1-0.9,0.4-1.2L27.1,9.4H1.6
			C0.7,9.4,0.3,9,0.3,8.2V1.2C0.3,0.4,0.7,0,1.6,0z"/>
		<path style="fill:#FFFFFF;" d="M56.5,1.5v29.3c0,1.6,0.3,3.1,0.8,4.5c0.5,1.4,1.3,2.7,2.2,3.7c1,1.1,2.1,1.9,3.5,2.5
			c1.3,0.6,2.8,0.9,4.4,0.9c1.6,0,3.1-0.3,4.4-0.9c1.3-0.6,2.5-1.4,3.4-2.5c1-1.1,1.7-2.3,2.2-3.7c0.5-1.4,0.8-2.9,0.8-4.5V1.5
			c0-0.4,0.1-0.8,0.4-1.1C78.9,0.1,79.3,0,79.8,0h6.8c0.4,0,0.8,0.1,1.2,0.4c0.4,0.3,0.5,0.6,0.5,1.1v29.3c0,2.9-0.5,5.6-1.6,8.1
			c-1.1,2.5-2.6,4.8-4.5,6.6c-1.9,1.9-4.1,3.4-6.6,4.5c-2.5,1.1-5.2,1.6-8.1,1.6s-5.6-0.5-8.2-1.6c-2.6-1.1-4.8-2.6-6.7-4.5
			c-1.9-1.9-3.4-4.1-4.5-6.6c-1.1-2.5-1.6-5.2-1.6-8.1V1.5c0-0.4,0.1-0.7,0.4-1c0.3-0.3,0.6-0.5,1-0.5h7.1c0.4,0,0.7,0.1,1.1,0.4
			C56.3,0.7,56.5,1.1,56.5,1.5z"/>
		<path style="fill:#FFFFFF;" d="M98.7,1.5c0-0.4,0.1-0.8,0.4-1.1c0.3-0.3,0.6-0.4,1.1-0.4h8c0.4,0,0.7,0.1,1.1,0.2
			c0.4,0.2,0.7,0.4,0.9,0.8l22.5,32.4V1c0.1-0.4,0.4-0.7,0.7-0.8c0.3-0.1,0.6-0.2,0.9-0.2h6.9c0.4,0,0.7,0.1,1.1,0.4
			c0.4,0.3,0.5,0.6,0.5,1.1v47.8c0,1-0.5,1.5-1.6,1.5h-6.8c-0.5,0-0.9-0.1-1.2-0.3c-0.3-0.2-0.5-0.5-0.8-0.8l-23.8-34.3v33.9
			c0,1-0.5,1.5-1.5,1.5h-6.9c-1,0-1.5-0.5-1.5-1.5V1.5z"/>
		<path style="fill:#FFFFFF;" d="M153,49.5v-48c0-1,0.5-1.4,1.4-1.4h7.4c0.9,0,1.3,0.5,1.3,1.4v48c0,0.9-0.4,1.4-1.3,1.4h-7.4
			C153.5,50.9,153,50.4,153,49.5z"/>
	</g>
	<g>
		<path style="fill:#81C784;" d="M175.6,47c-0.2-0.2-0.3-0.4-0.4-0.6c-0.1-0.2,0-0.4,0.2-0.7l2.3-2.2c0.2-0.2,0.4-0.2,0.6-0.2
			c0.2,0.1,0.4,0.2,0.6,0.4c0.3,0.3,0.7,0.7,1.1,1c0.4,0.3,0.9,0.7,1.3,0.9s1,0.5,1.6,0.7c0.6,0.2,1.2,0.3,1.8,0.3
			c0.7,0,1.3-0.1,1.8-0.3c0.5-0.2,1-0.4,1.3-0.7c0.4-0.3,0.6-0.6,0.8-1c0.2-0.4,0.3-0.8,0.3-1.2c0-0.5-0.2-1-0.5-1.4
			s-0.7-0.7-1.2-0.9c-0.5-0.3-1-0.5-1.5-0.6c-0.5-0.2-1-0.3-1.5-0.4c-2.7-0.8-4.8-1.8-6.2-3c-1.4-1.2-2.1-2.7-2.1-4.6
			c0-1,0.2-2,0.7-2.8c0.4-0.9,1.1-1.6,1.8-2.2c0.8-0.6,1.8-1.1,2.9-1.4s2.4-0.5,3.7-0.5c1.5,0,2.9,0.3,4.2,1
			c1.4,0.7,2.5,1.5,3.5,2.6c0.4,0.4,0.4,0.9,0,1.3l-1.8,2c-0.2,0.2-0.4,0.3-0.6,0.2c-0.2-0.1-0.4-0.2-0.6-0.4
			c-0.3-0.2-0.6-0.5-0.9-0.7c-0.3-0.3-0.7-0.5-1.1-0.8c-0.4-0.2-0.9-0.4-1.3-0.6c-0.5-0.2-0.9-0.2-1.4-0.2c-0.4,0-0.9,0-1.3,0.1
			s-0.9,0.2-1.2,0.4c-0.4,0.2-0.7,0.5-0.9,0.8c-0.2,0.3-0.4,0.8-0.4,1.4c0,0.4,0.1,0.8,0.4,1.1c0.2,0.3,0.6,0.6,1,0.8
			c0.4,0.2,1,0.5,1.5,0.7c0.6,0.2,1.2,0.4,2,0.6c1.1,0.3,2.2,0.7,3.2,1.1c1,0.4,1.9,0.9,2.6,1.5c0.8,0.6,1.3,1.3,1.8,2.1
			c0.4,0.8,0.7,1.8,0.7,3s-0.3,2.2-0.8,3.2c-0.5,1-1.2,1.8-2.1,2.4c-0.9,0.7-1.9,1.2-3,1.5c-1.1,0.4-2.3,0.5-3.5,0.5
			c-1.7,0-3.4-0.4-5-1.1S176.8,48.3,175.6,47z"/>
		<path style="fill:#81C784;" d="M197.7,50.2V26.6c0-0.4,0.2-0.7,0.6-0.7h9.8c1.1,0,2.2,0.2,3.1,0.7s1.8,1,2.5,1.8
			c0.7,0.8,1.2,1.6,1.6,2.6c0.4,1,0.6,2,0.6,3c0,1-0.2,2-0.6,3c-0.4,1-0.9,1.8-1.6,2.5c-0.7,0.7-1.5,1.3-2.5,1.8s-2,0.7-3.1,0.7
			h-5.5v8.3c0,0.4-0.2,0.7-0.7,0.7h-3.6C197.9,50.8,197.7,50.6,197.7,50.2z M207.1,30.2h-4.6v7.5h4.6c1.1,0,2-0.4,2.7-1.1
			c0.7-0.7,1-1.6,1-2.6c0-0.5-0.1-1-0.3-1.5c-0.2-0.5-0.4-0.9-0.8-1.2c-0.3-0.3-0.7-0.6-1.2-0.8C208.2,30.3,207.7,30.2,207.1,30.2z"
			/>
		<path style="fill:#81C784;" d="M243.2,38.4c0,1.8-0.3,3.4-1,5c-0.7,1.6-1.6,2.9-2.8,4.1c-1.2,1.2-2.5,2.1-4.1,2.7s-3.2,1-5,1
			s-3.4-0.3-5-1c-1.6-0.7-2.9-1.6-4.1-2.7s-2.1-2.5-2.7-4.1c-0.7-1.6-1-3.2-1-5c0-1.8,0.3-3.5,1-5c0.7-1.6,1.6-2.9,2.7-4.1
			c1.2-1.2,2.5-2.1,4.1-2.7c1.6-0.7,3.2-1,5-1s3.4,0.3,5,1s2.9,1.6,4.1,2.7c1.2,1.2,2.1,2.5,2.8,4.1
			C242.9,34.9,243.2,36.6,243.2,38.4z M238.3,38.4c0-1.1-0.2-2.2-0.6-3.2c-0.4-1-1-1.8-1.7-2.6c-0.7-0.7-1.5-1.3-2.5-1.7
			c-1-0.4-2-0.6-3.2-0.6c-1.1,0-2.2,0.2-3.1,0.6c-1,0.4-1.8,1-2.5,1.7s-1.3,1.6-1.6,2.6c-0.4,1-0.6,2-0.6,3.2c0,1.1,0.2,2.2,0.6,3.2
			c0.4,1,0.9,1.8,1.6,2.6s1.5,1.3,2.5,1.7c1,0.4,2,0.6,3.1,0.6c1.1,0,2.2-0.2,3.2-0.6c1-0.4,1.8-1,2.5-1.7c0.7-0.7,1.3-1.6,1.7-2.6
			C238.1,40.5,238.3,39.5,238.3,38.4z"/>
		<path style="fill:#81C784;" d="M247.5,50.2V26.6c0-0.2,0.1-0.3,0.2-0.5c0.1-0.1,0.3-0.2,0.5-0.2h10.7c1.1,0,2.2,0.2,3.2,0.7
			c1,0.5,1.8,1.1,2.5,1.8c0.7,0.8,1.2,1.6,1.6,2.6c0.4,1,0.6,2,0.6,3.1c0,1.4-0.4,2.7-1.2,4c-0.8,1.2-1.8,2.2-3.1,3l4.6,9.1
			c0.1,0.2,0.1,0.3,0,0.5c-0.1,0.2-0.2,0.2-0.5,0.2h-4.3c-0.3,0-0.6-0.2-0.8-0.6l-4-8.1h-5.1v8c0,0.4-0.2,0.7-0.7,0.7h-3.6
			C247.7,50.8,247.5,50.6,247.5,50.2z M257.6,30.2h-5.2v7.5h5.2c1.2,0,2.1-0.4,2.9-1.1c0.8-0.7,1.2-1.6,1.2-2.7c0-0.5-0.1-1-0.3-1.5
			c-0.2-0.5-0.5-0.9-0.9-1.2c-0.4-0.3-0.8-0.6-1.3-0.8C258.7,30.3,258.2,30.2,257.6,30.2z"/>
		<path style="fill:#81C784;" d="M268,29.7v-3.2c0-0.4,0.2-0.6,0.6-0.6h17.6c0.4,0,0.7,0.2,0.7,0.6v3.2c0,0.4-0.2,0.7-0.7,0.7h-6.4
			v19.8c0,0.4-0.2,0.7-0.6,0.7h-3.6c-0.4,0-0.6-0.2-0.6-0.7V30.4h-6.3C268.2,30.4,268,30.2,268,29.7z"/>
	</g>
</g>
</svg>
