<?xml version="1.0" encoding="utf-8"?>
<!-- Generator: Adobe Illustrator 19.0.0, SVG Export Plug-In . SVG Version: 6.00 Build 0)  -->
<svg version="1.1" id="Layer_1" xmlns="http://www.w3.org/2000/svg" xmlns:xlink="http://www.w3.org/1999/xlink" x="0px" y="0px"
	 viewBox="0 0 22.3 27.3" style="enable-background:new 0 0 22.3 27.3;" xml:space="preserve">
<g id="XMLID_168_">
	<path id="XMLID_170_" style="fill:#FFFFFF;" d="M7.3,16.1c0.7,2.3,1.5,4.7,2.3,7.3c0.3-1,0.6-1.7,0.8-2.5c0.1-0.2-0.1-0.4-0.2-0.6
		c-0.2-0.5-0.5-0.9-0.6-1.4c-0.2-0.7,0.2-1.2,0.9-1.3c0.3-0.1,0.7-0.1,1,0c0.8,0.1,1.1,0.6,1,1.4c0,0.1-0.1,0.2-0.1,0.4
		c-0.2,0.5-0.7,1-0.7,1.4c0.1,0.8,0.5,1.6,0.8,2.6c0.8-2.6,1.6-5.1,2.3-7.3c1.9,0.7,3.7,1.5,5.5,2.2c1,0.4,1.6,1.3,1.7,2.4
		c0.1,1.1,0.1,2.3,0,3.5c0,0.3-0.4,0.7-0.7,0.8c-2.5,1.3-5.2,2-8,2.2C9.4,27.6,5.3,27,1.4,25.3c-0.9-0.4-1.4-0.9-1.4-2
		c0.1-1.1,0-2.2,0.2-3.2c0.1-0.8,0.7-1.5,1.5-1.8C3.6,17.6,5.4,16.8,7.3,16.1z"/>
	<path id="XMLID_169_" style="fill:#FFFFFF;" d="M5.7,7.2C5.3,4.9,5.3,2.7,7.5,1.1C7.3,0.8,7.2,0.4,7,0c0.5,0,0.8,0.1,1.2,0.1
		c1.1,0,2.2,0,3.2-0.1c1.4-0.1,2.5,0.4,3.2,1.6C14.8,1.8,15,1.9,15.2,2c1,0.3,1.6,0.9,1.6,1.9c0.1,1.1,0,2.2,0,3.4
		c0.6,0.1,0.7,0.7,0.5,1.2c-0.1,0.8-0.4,1.5-0.6,2.3c0,0.1-0.1,0.3-0.2,0.4c-0.7,0.2-0.7,0.8-0.9,1.4c-0.7,2.1-2.5,3.4-4.5,3.4
		c-2.1,0-3.8-1.4-4.5-3.5c-0.1-0.4-0.2-0.9-0.7-1.2C5.3,10.9,4.8,8.4,5,7.8c0-0.3,0.2-0.8,0.4-0.9S5.6,7.1,5.7,7.2z"/>
</g>
</svg>
